<svg version="1.2" xmlns="http://www.w3.org/2000/svg" viewBox="0 0 2000 200" width="2000" height="200">
	<title>template</title>
	<style>
		.s0 { fill: #6538eb } 
		.s1 { fill: #dbd1fa } 
		.s2 { fill: #ffffff } 
	</style>
	<path id="Background" class="s0" d="m0 0h2000v200h-2000z"/>
	<g id="skull">
		<path id="Layer" fill-rule="evenodd" class="s1" d="m338.3 39.7c5.4 3.4 5.4 6.8 5.4 9.5l60.4 8.8c35.7-22.4 123.5-37.3 222.3-37.3 101.5 0 186.6 14.9 222.2 35.9l54.9-7.4c0-3.4 2.7-6.1 5.5-9.5 13.7-12.2 49.4-21 79.6-19 27.4 1.4 41.1 13.6 27.4 25.8 0 0.6-2.7 0.6-2.7 1.3 2.7 0 2.7 0 5.4 0 49.4 3.4 85.1 12.2 76.9 19-8.3 7.4-54.9 10.2-107 6.8-13.8-0.7-24.7-2.1-35.7-3.4l-85.1 12.2c-2.7 12.2-19.2 23-46.6 31.8l96 13.6c11-1.4 22-2.7 35.7-3.4 52.1-3.4 98.8 0 107 6.8 8.2 7.4-27.4 15.6-79.6 19 0 0.6-2.7 0.6-2.7 0.6v0.7c13.7 12.9 2.7 24.4-27.4 26.4-27.5 2.1-63.2-6.7-76.9-19.6-2.7-3.4-5.5-6.1-5.5-9.5l-65.8-9.5c-2.8 23.7-79.6 42-175.6 42-96.1 0-172.9-19-175.6-42l-68.6 10.2c-2.8 2.7-2.8 5.4-5.5 8.8-13.7 12.9-49.4 21.7-79.6 19.6-27.4-2-41.2-14.2-27.4-26.4 0-0.7 0-0.7 2.7-0.7-2.7-0.6-2.7-0.6-5.5-0.6-49.4-3.4-85-11.6-76.8-19 8.2-7.5 54.9-10.2 107-6.8 11 0.7 24.7 2 35.7 3.4l98.8-14.2c-24.7-8.2-41.2-19-43.9-29.9l-93.3-13.5c-11 1.3-22 2.7-35.7 3.4-49.4 3.4-98.8 0.6-107-6.8-5.5-6.8 27.4-15.6 79.5-19h2.8c0-0.7 0-0.7 0-1.3-13.7-12.2-2.8-24.4 27.4-26.5 30.2-1.3 63.1 6.8 76.9 19.7zm183.8 19.6c-49.4 0-87.8 9.5-87.8 21 0 12.2 38.4 21.7 87.8 21.7 46.6 0 85.1-9.5 85.1-21.7 0-11.5-38.5-21-85.1-21zm211.3 0c-49.4 0-87.8 9.5-87.8 21 0 12.2 38.4 21.7 87.8 21.7 46.6 0 85-9.5 85-21.7 0-11.5-38.4-21-85-21zm-156.4 60.4h96l-49.4-17z"/>
	</g>
	<path id="My Game List" class="s2" aria-label="My Game List"  d="m1377.9 109h17.5v-15.1h1.1l6.2 15.1h18.4l6.3-15.1h1v15.1h17.8v-20.5h-28.3l-5 13.8h-0.9l-5.1-13.8h-29zm95.3 6.1c20.4 0 20.8-2.6 20.8-7.8v-13.5h-17.3v7.1c0 3.9 0 4-2.8 4-2.8 0-2.8 0-2.8-3.4v-7.7h-17.4v9.9c0 3.6 1.6 5.1 11 5.1 3.6 0 8.8-0.3 10.9-1.9h1.1v1.7c0 2.8-0.2 2.9-7.8 2.9h-11.8v3.3c4 0.2 10.5 0.3 16.1 0.3zm67.7-5.9c6.8 0 14.8-0.2 19.6-0.6v-11.9h-20.3v4h3.7v4.5c-0.2 0-1 0-2.4 0-5.3 0-5.7-0.5-5.7-6.5 0-6.3 1.4-6.3 11.9-6.3 1.9 0 7.6 0.1 12.6 0.2v-3.8c-4.8-0.3-12.2-0.6-17.4-0.6-20.6 0-25.4 2-25.4 10.5 0 8.5 4.2 10.5 23.4 10.5zm36.9 0c4.4 0 8.2-0.7 9.3-1.9h1.1l0.5 1.7h16.8v-9.3c0-4.5-4.2-6.2-20.3-6.2-7 0-13.3 0.3-16.8 0.4v3.4c2.6-0.1 5.7-0.1 11.4-0.1 7.7 0 8.3 0.1 8.3 2.1v0.6c-1.8 0-5.2-0.1-7.5-0.1-11.2 0-14.7 1.3-14.7 4.7 0 3 2.2 4.7 11.9 4.7zm7.3-3.9c-2.7 0-2.7-0.4-2.7-1.2 0-1.1 0.7-1.4 3-1.4h2.7v0.8c0 0.7-0.1 1.2-0.4 1.5-0.4 0.3-1.3 0.3-2.6 0.3zm27.4 3.7h17.4v-7.5c0-4 0-4.1 2.6-4.1 2.8 0 2.8 0.1 2.8 3.4v8.2h17.4v-7.5c0-4 0-4.1 2.6-4.1 2.8 0 2.8 0.1 2.8 3.4v8.2h17.4v-10.6c0-3.4-2.2-4.9-11.1-4.9-4.7 0-8.9 0.4-11.3 2h-1.1c-1.1-1.3-4.1-2-9.9-2-4.9 0-9 0.4-11.3 2h-1.1l-0.4-1.7h-16.8zm108.2-7.6c0-5.6 0-7.9-19-7.9-19 0-20.2 2.7-20.2 7.9 0 5.2 0.5 7.8 20.9 7.8 6.2 0 13.3-0.2 17.3-0.4v-3.3c-4 0-10.8 0.1-13 0.1-7.7 0-7.8-0.2-7.8-2.9h21.8zm-19-4.3c2.8 0 2.9 0.2 2.9 2.6h-5.7c0-2.5 0.5-2.6 2.8-2.6zm42.6 11.8h32.3v-4.2h-13.7v-16.3h-18.6zm37.1-17.6h17.4v-4.5h-17.4zm0 17.6h17.4v-15.3h-17.4zm39.8 0.3c11.3 0 17.8-1.1 17.8-5.2 0-3.7-5.3-4.1-9.2-4.3l-5.9-0.4c-2.6-0.1-2.7-0.1-2.7-1.2 0-0.8 0.8-1 5.2-1 2.2 0 6.4 0.1 9.8 0.2v-3.3c-3.4-0.3-9.3-0.5-14-0.5-11.8 0-18.4 1.4-18.4 4.7 0 3.1 2.3 4.3 7 4.5l7.6 0.4c3.2 0.2 3.7 0.2 3.7 1.3 0 1.1-2.4 1.1-6.8 1.1-2.5 0-7.2 0-10.3-0.1v3.2c4.2 0.3 11 0.6 16.2 0.6zm25-0.3h17.4v-11.5h8v-3.7h-8v-4.4h-17.4v4.4h-5.4v3.7h5.4z"/>
</svg>